<svg xmlns="http://www.w3.org/2000/svg" viewBox="0 0 512 512" fill="#fd8232" width="512" height="512"><path d="M502.2 376.2h-76.4c11.1-16.1 17.1-35.2 17.1-54.9 0-17.8-4.9-35.3-14.1-50.5-7.9-13-18.8-24-31.7-32.1.7-5.3 1-10.7 1-16.5 0-71.1-57.9-129-129-129-37.7 0-64.1 11.3-87.3 37.6l-16.3-10.7 8.7 60.5 59.1-15.6-15.9-10.5c14-14.1 27.8-19 51.5-19 47.9 0 86.8 38.9 86.8 86.8v2.2c-3.5-.4-7.1-.6-10.4-.6-19.3 0-42.9 9.3-64.8 25.6l-14.1 10.4 31.6.7-3.1 30.7 11.5-10c15.7-13.7 29.2-14.6 36.6-15.1.5 0 1 0 1.5-.1h1.1c4.6 0 9.1.6 13.7 1.7 12.3 3.2 23.2 10.5 30.8 20.8 3 4 5.5 8.6 7.3 13.5 2.3 6.1 3.4 12.5 3.4 19.1 0 28.5-22.2 52.6-50.5 54.9H126.1c-37.4-2.7-66.7-34.2-66.7-71.7 0-39.7 32.3-71.9 71.9-71.9h.3c4.5 0 8.8.4 13.1 1.3 12.1 2.3 23.6 7.8 33.2 16 4.1 3.5 7.7 7.3 10.7 11.3 5.5 7.3 9.5 15.4 11.9 24.2.1.2.1.4.2.7l-20.1 3 46.8 39.1 34.8-50.9-19.7 2.6c-5.2-23.9-18.3-45.8-37-61.9-3.7-3.3-8-6.5-13.1-9.8-11.6-7.5-24.4-12.7-38-15.5-4.8-1-9.8-1.7-14.9-2.1-2.9-.2-5.7-.3-8.6-.3C68.2 190.4 17 241.6 17 304.5s51.2 114.1 114.1 114.1l369.2-.2-18.5-21.2 20.4-21z"></path></svg>