<svg xmlns="http://www.w3.org/2000/svg" viewBox="0 0 512 512" fill="#4fd5e0" width="512" height="512"><path d="M457.7 270.9c15.6-18.3 2.3-36.3.2-38.9-10.2-12.4-26.6-27.9-50.5-38-14.8-6.3-32.5-10.4-53.3-10.4-26 0-44.3 6.5-57.3 15.4l-2.1 1.5c6.1-2.4 12.8-3.7 19.7-3.7 30.1 0 54.5 24.4 54.5 54.5s-24.4 54.5-54.5 54.5c-7 0-13.6-1.3-19.7-3.7 13.1 9.7 32 16.9 59.4 16.9 53.1 0 85.7-27 102.6-46.9.3-.3.6-.7.9-1 0-.1.1-.2.1-.2zM75.2 92.7v45.4h.2c.7.1 1.2.1 1.8.2 1.1.2 2.3.3 3.4.5 2.2.4 4.3.9 6.3 1.3 4.1 1 8.1 2.2 11.9 3.5 7.7 2.7 15.1 5.8 22.2 9.4 14.2 7.1 27.4 15.7 39.7 25.1 12.3 9.4 23.8 19.7 34.6 30.5 1 1 2 2.1 3 3.1v-69.6l-93.9-64.8c-12.3-8.5-29.2.4-29.2 15.4zM196.4 246.3l-3.7-3.9c-2.5-2.6-5-5.1-7.6-7.7-2.6-2.5-5.2-5-7.7-7.4-10.5-9.7-21.4-18.8-32.9-26.9-11.5-8.1-23.5-15.3-36-20.9-6.2-2.8-12.6-5.2-18.9-7.2-3.2-.9-6.3-1.8-9.4-2.4-1.5-.3-3.1-.6-4.5-.8-.1 0-.3 0-.4-.1v166.5H77.7c2.1-.1 4.3-.3 6.5-.6 2.2-.2 4.4-.7 6.7-1.1 1.1-.2 2.2-.5 3.4-.7l3.4-.7c9-2.2 18-5.3 26.9-9l6.6-2.9 6.5-3.2 3.3-1.6c1.1-.6 2.1-1.2 3.2-1.7l6.4-3.5c.5-.3 1.1-.6 1.6-.9l1.6-1 3.1-1.9 6.3-3.8 12.3-8.2-10.2 10.9-5.3 5.2-2.7 2.6-1.3 1.3c-.5.4-.9.8-1.4 1.3l-5.6 5c-.9.8-1.9 1.7-2.8 2.5l-2.9 2.4-5.9 4.8-6.1 4.6c-8.3 6-17 11.6-26.4 16.4l-3.6 1.7c-1.2.6-2.4 1.2-3.6 1.7-2.5 1-4.9 2.2-7.5 3.1-2.5 1-5.2 1.8-7.9 2.7l-2.1.6c-.7.2-1.4.4-2.1.5-.7.2-1.5.3-2.2.5l-.6.1v47.2c0 15.1 16.9 23.9 29.3 15.4l93.9-64.8V248.5l-.2-.2-1.9-2z"></path><path d="M368.6 162.6l-5.4-3.7-118-81.6c-12.4-8.6-29.3.3-29.3 15.4v138.1l.9 1 .9 1.1.9 1.1 7.2 8.7c9 11.1 18.7 21.6 29.1 31.2l3.9 3.6c.6.6 1.3 1.2 2 1.7l2 1.7.7.6c-3.9-9.6-5.9-19.7-5.9-30.2 0-24 10.6-46.6 29.8-63.5 14.7-12.9 33.1-21.3 53.1-24.4 5.7-.9 11.5-1.4 17.5-1.4 3.6.1 7.2.2 10.6.6zM365 341.3c-.5.1-1.1.1-1.6.1s-1 .1-1.6.1c-1 0-2.1.1-3.1.1h-3c-4-.1-8-.3-12-.8-7.9-.9-15.6-2.5-23.2-4.7-7.6-2.1-14.9-4.8-22.1-7.9l-2.7-1.2-1.3-.6-1.3-.6-5.3-2.6c-3.4-1.8-6.9-3.6-10.2-5.6-3.4-1.9-6.6-4-9.9-6.1-1.6-1-3.2-2.2-4.8-3.2l-4.8-3.3-4.7-3.4c-.8-.6-1.5-1.2-2.3-1.8l-2.3-1.8-2.3-1.8c-.8-.6-1.5-1.2-2.2-1.8l-4.4-3.7c-8.5-7.3-16.5-15-24.1-23.1v142.1c0 15.1 16.9 23.9 29.3 15.4l121.9-84h-.4c-.5.1-1 .2-1.6.2z"></path></svg>