<?xml version="1.0" encoding="UTF-8" standalone="no"?>
<svg
   id="body_1"
   width="181"
   height="250"
   version="1.1"
   sodipodi:docname="jenkins.svg"
   inkscape:version="1.1 (c68e22c387, 2021-05-23)"
   xmlns:inkscape="http://www.inkscape.org/namespaces/inkscape"
   xmlns:sodipodi="http://sodipodi.sourceforge.net/DTD/sodipodi-0.dtd"
   xmlns="http://www.w3.org/2000/svg"
   xmlns:svg="http://www.w3.org/2000/svg">
  <defs
     id="defs501" />
  <sodipodi:namedview
     id="namedview499"
     pagecolor="#ffffff"
     bordercolor="#666666"
     borderopacity="1.0"
     inkscape:pageshadow="2"
     inkscape:pageopacity="0.0"
     inkscape:pagecheckerboard="0"
     showgrid="false"
     inkscape:zoom="4.812"
     inkscape:cx="58.499584"
     inkscape:cy="113.36243"
     inkscape:window-width="2400"
     inkscape:window-height="1421"
     inkscape:window-x="-9"
     inkscape:window-y="-9"
     inkscape:window-maximized="1"
     inkscape:current-layer="body_1" />
  <g
     transform="matrix(0.60370637,0,0,0.60400573,20.78138,32.659746)"
     id="g496">
    <g
       transform="matrix(1.25,0,0,-1.25,0,312)"
       id="g264" />
    <path
       transform="matrix(1.25,0,0,-1.25,0,312)"
       d="m 177.718,129.264 c 0,-49.428795 -39.175,-89.49919 -87.5,-89.49919 -48.324197,0 -87.49925,40.070395 -87.49925,89.49919 0,49.43 39.17505,89.50101 87.49925,89.50101 48.325,0 87.5,-40.07099 87.5,-89.50101"
       stroke="none"
       fill="#d33833"
       fill-rule="evenodd"
       id="path266" />
    <g
       transform="matrix(1.25,0,0,-1.25,0,312)"
       id="g268" />
    <path
       transform="matrix(1.25,0,0,-1.25,0,312)"
       d="m 6.28438,107.098 c 0,0 -6.33438019,93.333 79.66602,95.99999 v 0 l -5.9996,10 -46.666403,-15.66699 -13.333599,-15.33301 -11.66642,-22.334 -6.66719,-26 2,-17.333"
       stroke="none"
       fill="#ef3d3a"
       fill-rule="nonzero"
       id="path270" />
    <g
       transform="matrix(1.25,0,0,-1.25,0,312)"
       id="g272" />
    <path
       transform="matrix(1.25,0,0,-1.25,0,312)"
       d="M 30.2883,190.319 C 14.9363,174.611 5.43633,152.923 5.43633,128.93 5.43633,104.94199 14.9363,83.25119 30.2883,67.5461 45.6477,51.841 66.8152,42.15 90.2168,42.15 c 23.4022,0 44.5712,9.691003 59.9292,25.3961 15.351,15.7051 24.853,37.3959 24.853,61.3839 0,23.99299 -9.502,45.681 -24.853,61.389 -15.358,15.702 -36.527,25.393 -59.9292,25.395 -23.4016,-0.002 -44.5691,-9.693 -59.9285,-25.395 z M 26.4023,63.7469 C 10.0867,80.4328 0,103.493 0,128.93 c 0,25.44099 10.0867,48.49899 26.4023,65.186 16.3118,16.69 38.8915,27.035 63.8145,27.032 24.9232,0.003 47.5052,-10.342 63.8142,-27.032 16.317,-16.687 26.405,-39.74701 26.403,-65.186 C 180.436,103.493 170.348,80.43279 154.031,63.746895 137.722,47.0578 115.14,36.7141 90.2168,36.7141 c -24.92301,0 -47.502704,10.3437 -63.814502,27.032802"
       stroke="none"
       fill="#231f20"
       fill-rule="nonzero"
       id="path274" />
    <g
       transform="matrix(1.25,0,0,-1.25,0,312)"
       id="g276" />
    <path
       transform="matrix(1.25,0,0,-1.25,0,312)"
       d="m 127.051,128.768 -13.334,-1.99999 -18.000195,-2 -11.667195,-0.333 -11.332805,0.333 -8.667195,2.667 -7.666805,8.33299 -6,17 -1.333199,3.66701 -8,2.666 -4.666801,7.66699 -3.333199,11 3.667199,9.667 8.666,3 7,-3.334 3.334,-7.333 4,0.66701 1.332801,1.666 -1.332801,7.66699 -0.334,9.667 2,13.333 -0.0781,7.616 6.078098,9.717 10.666805,7.667 18.667195,8 20.666197,-3 18,-13 8.334,-13.333 5.33299,-9.667 1.33299,-24 -4,-20.66699 -7.33299,-18.33301 -7,-9.66699"
       stroke="none"
       fill="#f0d6b7"
       fill-rule="evenodd"
       id="path278" />
    <g
       transform="matrix(1.25,0,0,-1.25,0,312)"
       id="g280" />
    <path
       transform="matrix(1.25,0,0,-1.25,0,312)"
       d="m 115.717,71.102 -47.66739,-2 v -8.000003 l 4,-28 -2,-2.333999 -33.332805,11.333999 -2.334,4 -3.333201,37.666003 -7.665599,22.667 -1.6672,5.333 26.666,18.333 8.334,3.334 7.332805,-9 6.333195,-5.667 7.334,-2.333 3.332805,-1 4,-17.333 3,-3.666804 7.667195,2.666804 -5.334,-10.334 29.000195,-13.666 -3.666,-2"
       stroke="none"
       fill="#335061"
       fill-rule="evenodd"
       id="path282" />
    <g
       transform="matrix(1.25,0,0,-1.25,0,312)"
       id="g284" />
    <path
       transform="matrix(1.25,0,0,-1.25,0,312)"
       d="m 36.7168,187.435 8.666,3 7,-3.334 3.334,-7.333 4,0.66701 1,4 -2,7.666 2,18.334 -1.667197,10 6.000007,7 13,10.33299 -3.666805,5 -18.333199,-9 -7.666801,-6 -4.333199,-9.333 -6.666801,-9 -2,-10.667 1.334,-11.333"
       stroke="none"
       fill="#6d6b6d"
       fill-rule="evenodd"
       id="path286" />
    <g
       transform="matrix(1.25,0,0,-1.25,0,312)"
       id="g288" />
    <path
       transform="matrix(1.25,0,0,-1.25,0,312)"
       d="m 50.3828,218.768 c 0,0 5,12.33301 25,18.33301 20,6 1,4.334 1,4.334 v 0 l -21.666003,-8.334 -8.334,-8.33301 -3.666,-6.66699 7.666,0.66701"
       stroke="none"
       fill="#dcd9d8"
       fill-rule="evenodd"
       id="path290" />
    <g
       transform="matrix(1.25,0,0,-1.25,0,312)"
       id="g292" />
    <path
       transform="matrix(1.25,0,0,-1.25,0,312)"
       d="m 40.3828,189.768 c 0,0 -7,23.334 19.6668,26.667 v 0 l -1,4 -18.332803,-4.334 -5.334,-17.333 1.334,-11.333 3.666,2.33299"
       stroke="none"
       fill="#dcd9d8"
       fill-rule="evenodd"
       id="path294" />
    <g
       transform="matrix(1.25,0,0,-1.25,0,312)"
       id="g296" />
    <path
       transform="matrix(1.25,0,0,-1.25,0,312)"
       d="m 51.0496,158.768 4.3645,4.22901 c 0,0 1.9699,-0.22901 2.3027,-2.562 0.332803,-2.334 1.332803,-23.334 15.666,-34.668 1.3074,-1.03399 -10.666003,1.668 -10.666003,1.668 v 0 l -10.667197,16.666"
       stroke="none"
       fill="#f7e4cd"
       fill-rule="evenodd"
       id="path298" />
    <g
       transform="matrix(1.25,0,0,-1.25,0,312)"
       id="g300" />
    <path
       transform="matrix(1.25,0,0,-1.25,0,312)"
       d="m 112.385,165.101 c 0,0 0.777,10.104 3.498,9.327 2.721,-0.777 2.721,-3.498 2.721,-3.498 0,0 -6.608,-4.275 -6.219,-5.829"
       stroke="none"
       fill="#f7e4cd"
       fill-rule="evenodd"
       id="path302" />
    <g
       transform="matrix(1.25,0,0,-1.25,0,312)"
       id="g304" />
    <path
       transform="matrix(1.25,0,0,-1.25,0,312)"
       d="m 140.05,202.101 c 0,0 -5.494,-1.16 -6,-6 -0.506,-4.841 6,-1 7,-0.66701"
       stroke="none"
       fill="#f7e4cd"
       fill-rule="nonzero"
       id="path306" />
    <g
       transform="matrix(1.25,0,0,-1.25,0,312)"
       id="g308" />
    <path
       transform="matrix(1.25,0,0,-1.25,0,312)"
       d="m 99.7168,201.767 c 0,0 -7.334,-1 -7.334,-5.666 0,-4.66701 8.33419,-4.334 10.66719,-2.334"
       stroke="none"
       fill="#f7e4cd"
       fill-rule="nonzero"
       id="path310" />
    <g
       transform="matrix(1.25,0,0,-1.25,0,312)"
       id="g312" />
    <path
       transform="matrix(1.25,0,0,-1.25,0,312)"
       d="m 54.3828,180.101 c 0,0 -12.6672,7.667 -14,0.33299 -1.333197,-7.33301 -4.334,-12.66699 2,-20.33301 v 0 l -4.333197,1.333 -4,10.33299 -1.332803,10 7.666,8.001 8.6668,-0.667 5,-4 0.333197,-5"
       stroke="none"
       fill="#f7e4cd"
       fill-rule="evenodd"
       id="path314" />
    <g
       transform="matrix(1.25,0,0,-1.25,0,312)"
       id="g316" />
    <path
       transform="matrix(1.25,0,0,-1.25,0,312)"
       d="m 60.3828,201.101 c 0,0 5.6668,29.33299 34.334,35 23.60119,4.66499 35.9992,-1 40.6662,-6.333 0,0 -21,24.999 -41.0002,17.33301 -20,-7.66699 -34.666003,-21.66699 -34.3332,-30.666 0.5676,-15.328 0.333197,-15.334 0.333197,-15.334"
       stroke="none"
       fill="#f7e4cd"
       fill-rule="evenodd"
       id="path318" />
    <g
       transform="matrix(1.25,0,0,-1.25,0,312)"
       id="g320" />
    <path
       transform="matrix(1.25,0,0,-1.25,0,312)"
       d="m 137.717,226.435 c 0,0 -9.666,0.33299 -10.00001,-8.334 0,0 -9.9e-4,-1.333 0.66601,-2.666 0,0 7.668,8.66699 12.334,4"
       stroke="none"
       fill="#f7e4cd"
       fill-rule="evenodd"
       id="path322" />
    <g
       transform="matrix(1.25,0,0,-1.25,0,312)"
       id="g324" />
    <path
       transform="matrix(1.25,0,0,-1.25,0,312)"
       d="m 95.3887,214.532 c 0,0 -1.6641,13.30299 -13.005895,5.569 -7.333195,-5 -6.666,-12 -5.333195,-13.333 1.333195,-1.334 0.9707,-4.01899 1.9856,-2.17599 1.0144,1.843 0.6804,7.843 4.3476,9.509 3.666804,1.66701 9.67771,3.52901 12.0059,0.431"
       stroke="none"
       fill="#f7e4cd"
       fill-rule="evenodd"
       id="path326" />
    <g
       transform="matrix(1.25,0,0,-1.25,0,312)"
       id="g328" />
    <path
       transform="matrix(1.25,0,0,-1.25,0,312)"
       d="m 64.0496,124.435 -31.332803,-14 c 0,0 13,-51.667002 6.332803,-67.667002 v 0 L 34.382797,44.434 34.0496,64.1012 l -8.665601,37.3328 -3.6672,10.334 32.665998,21.999 9.666803,-9.332"
       stroke="none"
       fill="#49728b"
       fill-rule="evenodd"
       id="path330" />
    <g
       transform="matrix(1.25,0,0,-1.25,0,312)"
       id="g332" />
    <path
       transform="matrix(1.25,0,0,-1.25,0,312)"
       d="m 67.2715,95.8578 4.4453,-5.423794 v -20 h -5.334 c 0,0 -0.666,14 -0.666,15.667198 0,1.666801 0.666,7.666801 0.666,7.666801"
       stroke="none"
       fill="#49728b"
       fill-rule="evenodd"
       id="path334" />
    <g
       transform="matrix(1.25,0,0,-1.25,0,312)"
       id="g336" />
    <path
       transform="matrix(1.25,0,0,-1.25,0,312)"
       d="m 67.3828,67.434 -15.000003,-0.666 4.334,-3.000002 10.666003,-1.666802"
       stroke="none"
       fill="#49728b"
       fill-rule="evenodd"
       id="path338" />
    <g
       transform="matrix(1.25,0,0,-1.25,0,312)"
       id="g340" />
    <path
       transform="matrix(1.25,0,0,-1.25,0,312)"
       d="m 118.717,70.768 12.333,0.3332 3,-30.6672 -12.667,-1.666002 -2.666,32.000002"
       stroke="none"
       fill="#335061"
       fill-rule="evenodd"
       id="path342" />
    <g
       transform="matrix(1.25,0,0,-1.25,0,312)"
       id="g344" />
    <path
       transform="matrix(1.25,0,0,-1.25,0,312)"
       d="m 122.05,70.768 18.66701,1 c 0,0 7.666,19.3332 7.666,20.3332 0,1 6.66701,27.9998 6.66701,27.9998 v 0 l -15,15.666 -3,2.667 -8,-8 V 99.434006 l -7,-28.666001"
       stroke="none"
       fill="#335061"
       fill-rule="evenodd"
       id="path346" />
    <g
       transform="matrix(1.25,0,0,-1.25,0,312)"
       id="g348" />
    <path
       transform="matrix(1.25,0,0,-1.25,0,312)"
       d="M 130.383,73.1012 118.71699,70.768 120.383,61.434 c 4.333,-2 11.66699,3.334 11.66699,3.334"
       stroke="none"
       fill="#49728b"
       fill-rule="evenodd"
       id="path350" />
    <g
       transform="matrix(1.25,0,0,-1.25,0,312)"
       id="g352" />
    <path
       transform="matrix(1.25,0,0,-1.25,0,312)"
       d="m 130.717,131.434 23.33299,-17.33299 0.66701,8 -17.66701,16.33299 -6.33301,-7"
       stroke="none"
       fill="#49728b"
       fill-rule="evenodd"
       id="path354" />
    <g
       transform="matrix(1.25,0,0,-1.25,0,312)"
       id="g356" />
    <path
       transform="matrix(1.25,0,0,-1.25,0,312)"
       d="M 78.9508,5.09805 72.0496,33.102 68.6172,53.7648 68.0496,69.102 l 31.2348,1.6628 19.4326,0.0032 -1.76699,-35.003203 3,-26.99996 -0.33301,-4.9999997 -25.33259,-2 -15.333604,3.33321"
       stroke="none"
       fill="#ffffff"
       fill-rule="evenodd"
       id="path358" />
    <g
       transform="matrix(1.25,0,0,-1.25,0,312)"
       id="g360" />
    <path
       transform="matrix(1.25,0,0,-1.25,0,312)"
       d="m 114.383,71.1012 c 0,0 -1.666,-34.6672 3.334,-59.333202 0,0 -10,-6.3340204 -24.66739,-8.0000298 v 0 L 121.05,4.767968 l 3.333,2 -4,54.666032 -1,11.668"
       stroke="none"
       fill="#dcd9d8"
       fill-rule="evenodd"
       id="path362" />
    <g
       transform="matrix(1.25,0,0,-1.25,0,312)"
       id="g364" />
    <path
       transform="matrix(1.25,0,0,-1.25,0,312)"
       d="m 134.618,43.098 13,3.6668 24.666,1.3332 3.667,11.3329 -6.667,19.6671 -7.666,1 -10.66701,-3.3332 -10.23399,-4.9968 -5.433,0.9968 -4.234,-1.663596"
       stroke="none"
       fill="#ffffff"
       fill-rule="evenodd"
       id="path366" />
    <g
       transform="matrix(1.25,0,0,-1.25,0,312)"
       id="g368" />
    <path
       transform="matrix(1.25,0,0,-1.25,0,312)"
       d="m 134.383,49.768 c 0,0 8.666,3.9992 10,3.666002 v 0 l -3.666,18.334003 4.33299,1.666001 c 0,0 3,-17.332802 3,-19.332802 0,0 18.666,-1 20.33301,-1 0,0 4,7.666801 3,15.666801 v 0 l 3.667,-10.666801 0.333,-6 -5.33301,-8 -6,-1.333199 -10,0.333199 -3.33299,4.332802 -11.66701,-1.666001 -3.66701,-1.333999"
       stroke="none"
       fill="#dcd9d8"
       fill-rule="evenodd"
       id="path370" />
    <g
       transform="matrix(1.25,0,0,-1.25,0,312)"
       id="g372" />
    <path
       transform="matrix(1.25,0,0,-1.25,0,312)"
       d="m 121.284,73.4309 -7.333,18.6671 -7.667,11 c 0,0 1.666,4.667 4,4.667 2.334,0 7.667,0 7.667,0 v 0 l 7.333,-2.667 -0.666,-12.3332 -3.334,-19.3339"
       stroke="none"
       fill="#ffffff"
       fill-rule="nonzero"
       id="path374" />
    <g
       transform="matrix(1.25,0,0,-1.25,0,312)"
       id="g376" />
    <path
       transform="matrix(1.25,0,0,-1.25,0,312)"
       d="m 122.717,79.768 c 0,0 -9.334,17.9992 -9.334,20.666 0,0 1.666,4 4,3 2.334,-1 7.334,-3.666 7.334,-3.666 v 0 6.333 l -11.334,2.334 -7.666,-1 13,-30.667 2.666,-0.334"
       stroke="none"
       fill="#dcd9d8"
       fill-rule="evenodd"
       id="path378" />
    <g
       transform="matrix(1.25,0,0,-1.25,0,312)"
       id="g380" />
    <path
       transform="matrix(1.25,0,0,-1.25,0,312)"
       d="m 81.9512,123.764 -9.234395,1.004 -8.667195,2.667 v -3 l 4.2348,-4.67 13.3332,-6"
       stroke="none"
       fill="#ffffff"
       fill-rule="nonzero"
       id="path382" />
    <g
       transform="matrix(1.25,0,0,-1.25,0,312)"
       id="g384" />
    <path
       transform="matrix(1.25,0,0,-1.25,0,312)"
       d="m 67.0508,122.765 c 0,0 10.333996,-4.334 13.667195,-3.334 v 0 l 0.331595,-3.996 -9.3316,1.996 -5.6672,4 1,1.334"
       stroke="none"
       fill="#dcd9d8"
       fill-rule="evenodd"
       id="path386" />
    <g
       transform="matrix(1.25,0,0,-1.25,0,312)"
       id="g388" />
    <path
       transform="matrix(1.25,0,0,-1.25,0,312)"
       d="m 134.582,106.63 c -5.656,0.166 -10.766,0.838 -15.24,2.1 0.304,1.834 -0.265,3.634 0.192,4.955 1.24701,0.898 3.337,0.884 5.222,1.095 -1.62999,0.801 -3.91999,1.11799 -5.801,0.655 -0.044,1.273 -0.615,2.06199 -0.961,3.058 3.18,1.135 10.687,8.576 14.91,6.112 2.012,-1.172 2.86701,-7.866 3.023,-11.12101 0.13,-2.69999 -0.245,-5.42399 -1.345,-6.854"
       stroke="none"
       fill="#d33833"
       fill-rule="evenodd"
       id="path390" />
    <g
       transform="matrix(1.25,0,0,-1.25,0,312)"
       id="g392" />
    <path
       transform="matrix(1.25,0,0,-1.25,0,312)"
       d="m 134.582,106.63 c -5.656,0.166 -10.766,0.838 -15.24,2.1 0.304,1.834 -0.265,3.634 0.192,4.955 1.24701,0.898 3.337,0.884 5.222,1.095 -1.62999,0.801 -3.91999,1.11799 -5.801,0.655 -0.044,1.273 -0.615,2.06199 -0.961,3.058 3.18,1.135 10.687,8.576 14.91,6.112 2.012,-1.172 2.86701,-7.866 3.023,-11.12101 0.13,-2.69999 -0.245,-5.42399 -1.345,-6.854 v 0 z"
       stroke="#d33833"
       stroke-width="2"
       fill="none"
       id="path394" />
    <g
       transform="matrix(1.25,0,0,-1.25,0,312)"
       id="g396" />
    <path
       transform="matrix(1.25,0,0,-1.25,0,312)"
       d="m 107.535,115.876 c -0.015,-0.428 -0.033,-0.859 -0.05,-1.291 -1.766,-1.16001 -4.617,-1.146 -6.555,-2.121 2.857,-0.125 5.106,-0.81301 7.052,-1.783 -0.043,-1.078 -0.084,-2.155 -0.126,-3.233 -3.237,-2.21601 -6.194,-5.516 -10.0052,-7.5941 -1.802,-0.98281 -8.1262,-3.51171 -10.0434,-3.0648 -1.0847,0.2519 -1.1824,1.598 -1.61599,2.8668 -0.9238,2.7171 -3.0508,7.0421 -3.2363,11.1321 -0.2363,5.166 -0.7578,13.824 4.8094,12.76 4.4914,-0.857 9.7152,-2.926 13.1925,-4.826 2.125,-1.162 3.35399,-2.598 6.578,-2.846"
       stroke="none"
       fill="#d33833"
       fill-rule="evenodd"
       id="path398" />
    <g
       transform="matrix(1.25,0,0,-1.25,0,312)"
       id="g400" />
    <path
       transform="matrix(1.25,0,0,-1.25,0,312)"
       d="m 107.535,115.876 c -0.015,-0.428 -0.033,-0.859 -0.05,-1.291 -1.766,-1.16001 -4.617,-1.146 -6.555,-2.121 2.857,-0.125 5.106,-0.81301 7.052,-1.783 -0.043,-1.078 -0.084,-2.155 -0.126,-3.233 -3.237,-2.21601 -6.194,-5.516 -10.0052,-7.5941 -1.802,-0.98281 -8.1262,-3.51171 -10.0434,-3.0648 -1.0847,0.2519 -1.1824,1.598 -1.61599,2.8668 -0.9238,2.7171 -3.0508,7.0421 -3.2363,11.1321 -0.2363,5.166 -0.7578,13.824 4.8094,12.76 4.4914,-0.857 9.7152,-2.926 13.1925,-4.826 2.125,-1.162 3.35399,-2.598 6.578,-2.846 v 0 z"
       stroke="#d33833"
       stroke-width="2"
       fill="none"
       id="path402" />
    <g
       transform="matrix(1.25,0,0,-1.25,0,312)"
       id="g404" />
    <path
       transform="matrix(1.25,0,0,-1.25,0,312)"
       d="m 110.75,109.712 c -0.494,2.814 -1.065,3.617 -0.844,6.072 7.505,5.00399 8.914,-8.595 0.844,-6.072"
       stroke="none"
       fill="#d33833"
       fill-rule="evenodd"
       id="path406" />
    <g
       transform="matrix(1.25,0,0,-1.25,0,312)"
       id="g408" />
    <path
       transform="matrix(1.25,0,0,-1.25,0,312)"
       d="m 110.75,109.712 c -0.494,2.814 -1.065,3.617 -0.844,6.072 7.505,5.00399 8.914,-8.595 0.844,-6.072 z"
       stroke="#d33833"
       stroke-width="2"
       fill="none"
       id="path410" />
    <g
       transform="matrix(1.25,0,0,-1.25,0,312)"
       id="g412" />
    <path
       transform="matrix(1.25,0,0,-1.25,0,312)"
       d="m 121.617,107.431 c 0,0 -2.334,3.334 -0.667,4.334 1.667,1 3.334,-0.001 4.334,1.666 1,1.667 0,2.667 0.333,4.667 0.333,2 2.001,2.334 3.667,2.667 1.666,0.333 6.334,1 7,-0.667 v 0 l -2,6 -4,1.333 -12.667,-7.333 -0.667,-3.667 v -7.333"
       stroke="none"
       fill="#ef3d3a"
       fill-rule="evenodd"
       id="path414" />
    <g
       transform="matrix(1.25,0,0,-1.25,0,312)"
       id="g416" />
    <path
       transform="matrix(1.25,0,0,-1.25,0,312)"
       d="m 86.6172,96.4309 c -0.400395,5.2021 -0.8242,10.3971 -1.2957,15.5941 -0.705495,7.76 1.864,6.406 8.5906,6.406 1.0274,0 6.3259,-1.225 6.7049,-2 1.81801,-3.713 -3.04,-2.888 2.09401,-5.688 4.334,-2.363 11.98999,1.43499 10.239,6.688 -0.98001,1.168 -5.10601,0.364 -6.58501,1.131 -2.604,1.35 -5.208,2.69999 -7.812296,4.05 -3.313204,1.719 -10.970704,4.225 -14.503094,1.823 -8.950405,-6.087 0.5649,-21.296 3.75779,-27.64591"
       stroke="none"
       fill="#ef3d3a"
       fill-rule="evenodd"
       id="path418" />
    <g
       transform="matrix(1.25,0,0,-1.25,0,312)"
       id="g420" />
    <path
       transform="matrix(1.25,0,0,-1.25,0,312)"
       d="m 95.3887,214.532 c -9.085195,2.116 -13.5996,-3.802 -16.3535,-9.94 -2.459,0.59599 -1.4805,3.94 -0.859396,5.644 1.626196,4.472 8.179706,10.425 13.534401,9.61799 2.304295,-0.347 5.4226,-2.45399 3.678495,-5.32201"
       stroke="none"
       fill="#231f20"
       fill-rule="evenodd"
       id="path422" />
    <g
       transform="matrix(1.25,0,0,-1.25,0,312)"
       id="g424" />
    <path
       transform="matrix(1.25,0,0,-1.25,0,312)"
       d="m 139.655,204.186 c 0.143,-0.006 0.288,-0.011 0.431,-0.017 2.05299,-4.265 3.83,-8.783 6.42,-12.548 -1.735,-4.041 -13.138,-7.617 -12.96201,-0.36099 2.46601,1.078 6.72301,0.22 8.909,1.597 -1.26401,3.46899 -3.088,6.42199 -2.79801,11.32899"
       stroke="none"
       fill="#231f20"
       fill-rule="evenodd"
       id="path426" />
    <g
       transform="matrix(1.25,0,0,-1.25,0,312)"
       id="g428" />
    <path
       transform="matrix(1.25,0,0,-1.25,0,312)"
       d="m 100.04,204.075 c 1.948,-3.571 2.582,-7.323 5.351,-10.022 1.247,-1.215 3.672,-2.696 2.47,-6.075 -0.281,-0.797 -2.334,-2.57401 -3.519,-2.923 -4.329,-1.278 -14.416196,-0.26401 -11.000195,5.13299 3.580101,-0.16701 8.392205,-2.325 11.068195,0.274 -2.055,3.28501 -5.71859,9.784 -4.37,13.61301"
       stroke="none"
       fill="#231f20"
       fill-rule="evenodd"
       id="path430" />
    <g
       transform="matrix(1.25,0,0,-1.25,0,312)"
       id="g432" />
    <path
       transform="matrix(1.25,0,0,-1.25,0,312)"
       d="m 138.03,167.781 c -6.518,-4.18699 -13.786,-8.74 -24.466,-7.684 -2.282,1.984 -3.152,6.399 -0.935,9.315 1.154,-1.98399 0.429,-5.633 3.64499,-6.182 6.06,-1.037 13.11301,3.707 17.47201,5.365 2.703,4.55701 -0.233,6.233 -2.668,9.166 -4.985,6.009 -11.67199,13.457 -11.429,22.453 2.015,1.461 2.189,-2.22999 2.478,-2.90199 2.603,-6.09199 9.154,-13.88299 13.935,-19.097 1.174,-1.28399 3.10699,-2.51601 3.322,-3.36501 0.62,-2.46899 -1.613,-5.427 -1.354,-7.069"
       stroke="none"
       fill="#231f20"
       fill-rule="evenodd"
       id="path434" />
    <g
       transform="matrix(1.25,0,0,-1.25,0,312)"
       id="g436" />
    <path
       transform="matrix(1.25,0,0,-1.25,0,312)"
       d="m 52.1016,172.189 c -2.043,1.166 -2.5293,6.302 -4.9278,6.448 -3.4277,0.20799 -2.8027,-6.663 -2.789,-10.681 -2.3594,2.14199 -2.7743,8.737 -1.041,12.12399 -1.9754,0.97 -2.857502,-1.07001 -3.9532,-1.789 1.408198,10.22999 14.9649,4.74499 12.711,-6.10201"
       stroke="none"
       fill="#231f20"
       fill-rule="evenodd"
       id="path438" />
    <g
       transform="matrix(1.25,0,0,-1.25,0,312)"
       id="g440" />
    <path
       transform="matrix(1.25,0,0,-1.25,0,312)"
       d="m 142.18,163.521 c -3.034,-5.775 -7.32601,-12.135 -16.22901,-12.32001 -0.181,1.86501 -0.32,4.703 0.01,5.82601 6.80601,0.654 11.00801,4.11799 16.21901,6.494"
       stroke="none"
       fill="#231f20"
       fill-rule="evenodd"
       id="path442" />
    <g
       transform="matrix(1.25,0,0,-1.25,0,312)"
       id="g444" />
    <path
       transform="matrix(1.25,0,0,-1.25,0,312)"
       d="m 99.5266,159.777 c 5.6784,-2.98601 16.11441,-3.30701 23.8324,-3.081 0.414,-1.691 0.404,-3.78 0.42,-5.842 -9.921,-0.49499 -21.651,1.96001 -24.252404,8.92301"
       stroke="none"
       fill="#231f20"
       fill-rule="evenodd"
       id="path446" />
    <g
       transform="matrix(1.25,0,0,-1.25,0,312)"
       id="g448" />
    <path
       transform="matrix(1.25,0,0,-1.25,0,312)"
       d="m 98.4473,154.209 c 3.9267,-9.859 17.4227,-8.724 28.80371,-8.452 -0.501,-1.28 -1.587,-2.792 -2.937,-3.339 -3.647,-1.484 -13.706,-2.61 -18.769,0.079 -3.211,1.707 -5.274,5.56399 -7.0333,7.82499 -0.8496,1.092 -5.0801,3.881 -0.0644,3.88699"
       stroke="none"
       fill="#231f20"
       fill-rule="evenodd"
       id="path450" />
    <g
       transform="matrix(1.25,0,0,-1.25,0,312)"
       id="g452" />
    <path
       transform="matrix(1.25,0,0,-1.25,0,312)"
       d="m 137.556,99.8262 c -4.608,-7.892194 -9.017,-15.9981 -14.484,-22.959394 2.292,6.739094 3.273,18.018404 3.619,26.617204 4.79501,2.244 8.901,-0.505 10.865,-3.6578"
       stroke="none"
       fill="#81b0c4"
       fill-rule="evenodd"
       id="path454" />
    <g
       transform="matrix(1.25,0,0,-1.25,0,312)"
       id="g456" />
    <path
       transform="matrix(1.25,0,0,-1.25,0,312)"
       d="m 162.352,71.4609 c -5.15899,-1.0328 -8.78399,-6.0468 -13.817,-5.725 2.76601,3.8993 7.61301,5.543 13.817,5.725"
       stroke="none"
       fill="#231f20"
       fill-rule="evenodd"
       id="path458" />
    <g
       transform="matrix(1.25,0,0,-1.25,0,312)"
       id="g460" />
    <path
       transform="matrix(1.25,0,0,-1.25,0,312)"
       d="m 164.628,63.3871 c -4.205,-0.4441 -9.14399,-1.125 -13.40899,-0.7742 2.01899,3.084 9.798,2.0199 13.40899,0.7742"
       stroke="none"
       fill="#231f20"
       fill-rule="evenodd"
       id="path462" />
    <g
       transform="matrix(1.25,0,0,-1.25,0,312)"
       id="g464" />
    <path
       transform="matrix(1.25,0,0,-1.25,0,312)"
       d="m 166.085,56.4262 c -4.72599,-0.1024 -10.6,-0.0082 -15.09199,0.3687 2.657,2.8539 12.02701,1.058997 15.09199,-0.3687"
       stroke="none"
       fill="#231f20"
       fill-rule="evenodd"
       id="path466" />
    <g
       transform="matrix(1.25,0,0,-1.25,0,312)"
       id="g468" />
    <path
       transform="matrix(1.25,0,0,-1.25,0,312)"
       d="m 128.664,37.377 c 0.678,-5.9352 3.031,-11.948901 2.736,-18.448901 -2.61301,-0.881201 -4.114,-1.651899 -7.615,-1.647199 -0.24701,5.5242 -0.986,13.9691 -0.765,19.2351 1.722,-0.114 4.261,1.230098 5.644,0.861"
       stroke="none"
       fill="#dcd9d8"
       fill-rule="evenodd"
       id="path470" />
    <g
       transform="matrix(1.25,0,0,-1.25,0,312)"
       id="g472" />
    <path
       transform="matrix(1.25,0,0,-1.25,0,312)"
       d="m 121.045,124.849 c -2.373,-1.54901 -4.394,-3.483 -6.673,-5.137 -5.054,-0.25 -7.81199,0.35 -11.525,3.252 0.061,0.233 0.434,0.129 0.448,0.415 5.41,-2.411 12.287,0.982 17.75,1.47"
       stroke="none"
       fill="#f0d6b7"
       fill-rule="evenodd"
       id="path474" />
    <g
       transform="matrix(1.25,0,0,-1.25,0,312)"
       id="g476" />
    <path
       transform="matrix(1.25,0,0,-1.25,0,312)"
       d="m 92.6445,87.9711 c 1.4864,6.441 7.3106,9.7769 12.5995,13.3239 5.459,-6.9282 8.779,-15.838 12.435,-24.43601 -8.638,2.6039 -17.464,6.82891 -25.0345,11.1121"
       stroke="none"
       fill="#81b0c4"
       fill-rule="evenodd"
       id="path478" />
    <g
       transform="matrix(1.25,0,0,-1.25,0,312)"
       id="g480" />
    <path
       transform="matrix(1.25,0,0,-1.25,0,312)"
       d="m 123.02,36.516 c -0.221,-5.266 0.51799,-13.7109 0.765,-19.2351 3.501,-0.0047 5.002,0.766 7.615,1.647199 0.29499,6.5 -2.058,12.513701 -2.736,18.448901 -1.383,0.369098 -3.922,-0.975 -5.644,-0.861 z M 68.5059,66.4648 C 70.8145,45.2418 74.1582,27.4012 80.291,8.60781 93.9023,4.475 110.311,4.11484 122.342,7.84414 120.133,18.4512 121.098,31.3648 119.807,42.684 c -0.973,8.5078 -0.477,17.068 -1.811,25.748 -14.578,3.0328 -35.1835,0.709 -49.490095,-1.9672 z m 52.93709,1.834 c -0.123,-9.1148 0.408,-18.105803 1.104,-27.232005 3.5,0.525399 5.87501,0.876202 9.12701,1.5891 -1.056,8.7859 -0.926,18.672199 -3.077,26.444095 -2.486,-0.0238 -4.675,0.0289 -7.154,-0.8012 z M 139.198,69.768 c -1.661,0.380796 -3.595,0.0148 -5.18201,-0.016 0.74601,-7.4301 2.556,-15.629 3.19299,-23.4282 2.497,-0.0777 3.831,1.099998 5.885,1.4961 0.11,6.8461 -0.59801,16.2781 -3.896,21.9481 z m 26.884,-24.562903 c 5.205,1.264 8.478,7.639 7.022,14.185903 -0.977,4.4 -2.71699,12.6852 -4.57899,15.5 -1.37601,2.082 -5.107,4.8078 -8.086,2.9 -4.84599,-3.1031 -13.38299,-4.0039 -16.91701,-7.7601 1.772,-5.9 2.32201,-14.0039 3.053,-21.4797 6.054,-0.3774 13.503,1.666 18.53799,-0.5024 -3.515,-1.138598 -8.076,-1.147597 -11.11301,-2.806998 2.482,-1.198799 8.293,-0.9566 12.08201,-0.0367 z M 117.679,76.859 c -3.656,8.598 -6.976,17.5078 -12.435,24.436 C 99.9551,97.748 94.1309,94.4121 92.6445,87.9711 100.215,83.6879 109.041,79.4629 117.679,76.859 Z m 9.012,26.625 c -0.346,-8.5988 -1.327,-19.8781 -3.619,-26.6172 5.467,6.961294 9.876,15.0672 14.484,22.9594 -1.964,3.1528 -6.07,5.9018 -10.865,3.6578 z m -10.21599,3.63 c -2.071,0.223 -3.82901,-2.381 -6.52201,-1.255 -0.61699,-0.682 -1.178,-1.421 -1.807,-2.087 5.948,-7.168095 8.65101,-17.337994 13.24501,-25.7618 2.46499,8.0918 2.181,16.957 2.72399,25.7888 -3.387,-0.215 -5.26599,3.063 -7.63999,3.315 z m -6.569,8.67 c -0.221,-2.455 0.34999,-3.25801 0.844,-6.072 8.07,-2.523 6.661,11.07599 -0.844,6.072 z m -8.949,2.938 c -3.477304,1.9 -8.701105,3.969 -13.1925,4.826 -5.5672,1.06501 -5.0457,-7.594 -4.8094,-12.76 0.1855,-4.09 2.3125,-8.415 3.2363,-11.1321 0.4336,-1.2688 0.5313,-2.6149 1.61599,-2.8668 1.9172,-0.4469 8.241405,2.082 10.0434,3.0648 3.8112,2.0781 6.7682,5.37809 10.0052,7.5941 0.042,1.078 0.083,2.155 0.126,3.233 -1.946,0.97 -4.195,1.658 -7.052,1.783 1.938,0.975 4.789,0.96099 6.555,2.121 0.017,0.432 0.035,0.863 0.05,1.291 -3.224,0.248 -4.453,1.684 -6.578,2.846 z m -33.2136,6.033 c -2.886,-2.93 8.094496,-6.92401 11.5906,-7.139 -0.0195,1.85399 1.0566,3.602 0.839795,4.932 -4.152295,0.72899 -9.609295,0.248 -12.430395,2.207 z m 35.5516,-1.376 c -0.014,-0.286 -0.387,-0.182 -0.44799,-0.415 3.71299,-2.902 6.471,-3.502 11.525,-3.252 2.279,1.654 4.3,3.58799 6.67299,5.137 -5.46299,-0.488 -12.33999,-3.881 -17.75,-1.47 z m 32.63201,-9.89501 c -0.15601,3.255 -1.011,9.949 -3.023,11.12101 -4.223,2.46499 -11.72999,-4.977 -14.91,-6.112 0.346,-0.99601 0.917,-1.78501 0.961,-3.058 1.88099,0.46299 4.17099,0.146 5.801,-0.655 -1.885,-0.211 -3.975,-0.197 -5.222,-1.095 -0.457,-1.321 0.112,-3.121 -0.192,-4.955 4.474,-1.262 9.58401,-1.934 15.24,-2.1 1.1,1.43 1.475,4.154 1.345,6.85399 z m -73.0422,8.437 c -0.9063,0.646 -7.037103,8.623 -7.877,8.29199 C 43.9141,125.838 33.541,118.273 24.2715,111.118 33.1094,92.1539 36.677,68.9199 37.3074,46.5262 47.4316,41.791 56.3242,34.9648 70.0625,34.252 68.4727,45.5 67.0215,55.5352 66.1191,66.125 c -3.451898,1.4551 -8.4043,-0.066 -11.6347,0.4512 -0.0274,3.8929 4.933603,1.7047 5.3468,4.3226 0.3114,1.98011 -2.7296,2.1301 -1.7394,5.248104 2.5254,-0.917999 3.8516,-2.945704 6.5449,-3.7071 2.461,5.384006 -0.0344,14.910202 0.3203,19.410202 0.0672,0.844904 0.4219,4.680904 2.3145,4.007794 1.675,-0.5957 -0.0957,-10.20189 0.0879,-14.460896 0.167196,-3.923894 -0.4739,-7.720704 1.115194,-10.183998 13.275396,1.806999 26.765606,2.974998 41.129396,3.369104 -3.16001,1.3559 -6.914,2.6391 -11.0298,4.959 -2.2312,1.257795 -9.2644,3.875 -9.908205,5.9942 -1.027295,3.3769 2.695295,5.1757 3.332001,8.0707 -6.701106,-3.6547 -8.008496,3.5031 -9.593706,8.5741 -1.4363,4.593 -2.2539,8.024 -2.6063,10.673 -5.7726,2.752 -11.944495,5.539 -16.9132,9.068 z m 67.17921,7.327 c 9.24299,4.48199 10.90899,-16.751 7.28599,-23.59101 0.56,-2.04 2.48601,-2.821 3.272,-4.655 -5.158,-9.239895 -10.88699,-17.864895 -16.15,-26.9961 3.915,2.437106 9.507,0.4359 14.11401,2.2601 1.684,0.666004 2.903,4.52111 4.17799,7.605106 3.50701,8.484804 7.189,19.181904 8.827,27.278904 0.36999,1.845 1.378,5.86499 1.15199,7.50699 -0.403,2.94001 -4.392,5.12 -6.42101,6.93801 -3.738,3.358 -6.09199,6.313 -9.99099,9.453 -1.58099,-2.334 -4.974,-3.90199 -6.267,-5.8 z m -88.317906,81.968 c -4.4043,-4.84599 -3.482399,-13.92599 -2.949199,-20.386 7.960899,5.00799 18.527301,-0.396 18.4277,-8.914 3.8008,0.10099 1.419899,4.74699 0.732399,7.74 -2.2468,9.776 3.785202,20.39701 0.273498,29.33701 -6.818402,-0.517 -12.419998,-3.302 -16.484398,-7.777 z m 31.513706,28.12599 c -9.970703,-2.826 -22.7493,-10.071 -26.846504,-19.028 3.1726,0.461 5.375,2.061 8.5047,2.259 1.1828,0.077 2.732399,-0.496 4.091801,-0.158 2.708999,0.672 4.995303,6.746 7.039003,9.00599 1.9922,2.20701 4.3867,3.15 6.0254,5.16201 1.0528,0.50799 2.609394,0.473 2.66919,2.054 -0.456295,0.488 -0.936795,0.86 -1.48359,0.705 z m 51.9032,-2.658 c -10.349,5.839 -27.86611,10.231 -38.8747,4.74299 -8.8828,-4.429 -20.8899,-11.757 -24.9836,-21.043 3.8242,-8.961 -1.1328,-17.17199 -1.4492,-26.27 -0.168,-4.84101 2.2793,-9.067 2.4668,-14.33701 -1.3086,-2.15899 -5.3067,-2.425 -8.0743,-2.27699 -0.931597,4.662 -2.5625,9.90201 -7.3632,10.42799 -6.793,0.743 -11.7598,-4.87899 -12.0684,-10.75399 -0.3652,-6.909 5.306598,-18.36001 13.3457,-17.56501 3.105498,0.30701 3.8684,3.42 7.251997,3.388 1.833901,-3.65899 -2.828899,-4.808 -3.308601,-7.425 -0.125,-0.67599 0.3867,-3.31799 0.684299,-4.55701 1.460202,-6.033 4.715302,-13.841 7.919201,-18.434 4.066404,-5.82601 12.055504,-6.704 20.650404,-7.275 1.5351,3.307 7.1902,3.03499 10.875,2.16999 -4.416,1.74901 -8.5215,5.98901 -11.9239,9.742 -3.9082,4.306 -7.867094,8.925 -8.0671,14.553 7.3855,-10.24601 13.4871,-19.19401 26.9168,-23.70101 10.16181,-3.408 22.0298,1.562 29.8378,7.045 3.24001,2.27901 5.174,5.895 7.47701,9.205 8.617,12.39501 12.638,30.08701 11.75399,47.235 -0.36399,7.07201 -0.348,14.12 -2.72099,18.87801 -2.47999,4.975 -10.86799,9.42599 -15.778,4.92599 -0.91,4.838 4.08301,7.83 9.948,6.08901 -4.18201,5.397 -8.571,11.882 -14.515,15.23599 z M 144.444,77.1168 c 8.087,4.0203 23.197,10.8211 28.267,-0.0148 1.871,-3.994204 4.066,-10.746104 5.035,-14.869204 1.369,-5.816799 -1.48399,-18.043 -7.463,-19.9949 -5.281,-1.723801 -11.44299,-1.618801 -17.804,-0.341 -0.74899,0.623001 -1.58299,1.709 -2.166,2.841 -4.542,0.176201 -8.795,-0.243801 -12.38299,-2.110901 0.33999,-3.359001 -1.93201,-3.898098 -4.062,-4.589901 -1.57899,-6.2609 3.159,-14.437099 2.02499,-20.146099 -0.809,-4.0672 -5.813,-4.6961 -9.49099,-5.457 -0.12001,-2.260199 0.161,-4.146889 0.412,-6.059 -0.841,-3.0988298 -4.613,-4.8628895 -8.187,-5.2949197 -11.759,-1.4140641 -29.61329,-2.0492211 -40.9239,2.01797 -3.1562,7.7417497 -5.6426,17.1578507 -8.2715,25.9980507 -11.0312,-1.178101 -19.953102,4.7598 -28.364,8.649998 -2.9121,1.349998 -6.9406,2.0937 -8.028498,4.411701 -1.054701,2.244202 -0.623102,6.545299 -0.8848,10.6082 -0.666,10.376999 -1.236299,20.385995 -3.976601,31.010995 -1.2304,4.7679 -3.375,8.975 -4.871099,13.5691 -1.382799,4.2579 -3.7988,9.5199 -4.4289,13.7659 -0.934299,6.293 4.9914,6.643 8.780501,9.37 5.857401,4.21701 10.455097,6.549 16.798799,10.355 1.878898,1.127 7.545002,3.98 8.189498,5.29401 1.2812,2.605 -2.1992,6.278 -3.1297,8.31999 -1.4719,3.22901 -2.239497,5.972 -2.4504,9.15801 -5.3215,0.841 -9.3555,4.00799 -11.792202,7.57899 -4.0308,5.91 -6.8262,16.84399 -3.338699,25.16099 0.273498,0.655 1.637501,1.943 1.838699,2.94901 0.396902,1.981 -0.746898,4.61501 -0.818001,6.722 -0.366401,10.81 1.828999,20.12399 9.106301,23.384 2.9543,11.769 13.528099,15.68201 23.490196,21.53101 3.723896,2.186 7.828906,3.58299 12.068396,5.143 15.2082,5.597 38.5419,4.543 51.1639,-5.003 5.35201,-4.048 13.907,-12.595 16.967,-18.78301 8.082,-16.337 7.508,-43.63999 1.855,-63.513 -0.76,-2.66799 -1.862,-6.58999 -3.401,-9.79499 -1.073,-2.23801 -4.40801,-6.71601 -4.00301,-8.69201 0.41701,-2.04299 7.604,-7.5 9.145,-8.98599 2.775,-2.677 8.047,-6.23 8.474,-9.608 0.459,-3.595 -1.584,-8.513 -2.619,-11.982 -3.46001,-11.5769 -6.836,-22.2781 -10.75901,-32.59921"
       stroke="none"
       fill="#231f20"
       fill-rule="evenodd"
       id="path482" />
    <g
       transform="matrix(1.25,0,0,-1.25,0,312)"
       id="g484" />
    <path
       transform="matrix(1.25,0,0,-1.25,0,312)"
       d="m 90.491,157.255 c 0.438695,0.584 2.8508,1.471 6.2258,-0.154 0,0 -4,-0.66701 -3.6672,-7.336 v 0 l -1.6668,0.334 c 0,0 -1.722606,6.047 -0.8918,7.156"
       stroke="none"
       fill="#f7e4cd"
       fill-rule="evenodd"
       id="path486" />
    <g
       transform="matrix(1.25,0,0,-1.25,0,312)"
       id="g488" />
    <path
       transform="matrix(1.25,0,0,-1.25,0,312)"
       d="m 119.717,99.934 c 0,-1.0121 -0.821,-1.8328 -1.834,-1.8328 -1.012,0 -1.833,0.8207 -1.833,1.8328 0,1.012 0.821,1.834 1.833,1.834 1.013,0 1.834,-0.822 1.834,-1.834"
       stroke="none"
       fill="#1d1919"
       fill-rule="evenodd"
       id="path490" />
    <g
       transform="matrix(1.25,0,0,-1.25,0,312)"
       id="g492" />
    <path
       transform="matrix(1.25,0,0,-1.25,0,312)"
       d="m 121.55,91.434 c 0,-1.0121 -0.821,-1.8328 -1.834,-1.8328 -1.012,0 -1.833,0.8207 -1.833,1.8328 0,1.0121 0.821,1.834 1.833,1.834 1.013,0 1.834,-0.8219 1.834,-1.834"
       stroke="none"
       fill="#1d1919"
       fill-rule="evenodd"
       id="path494" />
  </g>
</svg>
